HIERARCHY
ROOT Hips
{
    OFFSET 0.000000 0.000000 0.000000
    CHANNELS 6 Xposition Yposition Zposition Zrotation Xrotation Yrotation
    JOINT Spine
    {
        OFFSET -0.000000 7.246840 0.000000
        CHANNELS 3 Zrotation Xrotation Yrotation
        JOINT Spine1
        {
            OFFSET -0.000000 20.289354 0.000000
            CHANNELS 3 Zrotation Xrotation Yrotation
            JOINT Neck
            {
                OFFSET -0.000000 20.206032 1.836912
                CHANNELS 3 Zrotation Xrotation Yrotation
                JOINT Head
                {
                    OFFSET -0.000000 12.372654 -1.767522
                    CHANNELS 3 Zrotation Xrotation Yrotation
                    End Site
                    {
                        OFFSET -0.000000 22.094025 0.000000
                    }
                }
            }
            JOINT LeftShoulder
            {
                OFFSET 3.465871 17.201674 -0.568930
                CHANNELS 3 Zrotation Xrotation Yrotation
                JOINT LeftArm
                {
                    OFFSET 14.070313 0.000000 0.000000
                    CHANNELS 3 Zrotation Xrotation Yrotation
                    JOINT LeftForeArm
                    {
                        OFFSET 26.549477 0.000000 0.000000
                        CHANNELS 3 Zrotation Xrotation Yrotation
                        JOINT LeftHand
                        {
                            OFFSET 18.880413 0.000000 0.000000
                            CHANNELS 3 Zrotation Xrotation Yrotation
                            End Site
                            {
                                OFFSET 13.256415 0.000000 0.000000
                            }
                        }
                    }
                }
            }
            JOINT RightShoulder
            {
                OFFSET -3.526370 17.201674 -0.568930
                CHANNELS 3 Zrotation Xrotation Yrotation
                JOINT RightArm
                {
                    OFFSET -14.070313 0.000000 0.000000
                    CHANNELS 3 Zrotation Xrotation Yrotation
                    JOINT RightForeArm
                    {
                        OFFSET -26.549477 0.000000 0.000000
                        CHANNELS 3 Zrotation Xrotation Yrotation
                        JOINT RightHand
                        {
                            OFFSET -18.880413 0.000000 0.000000
                            CHANNELS 3 Zrotation Xrotation Yrotation
                            End Site
                            {
                                OFFSET -13.256415 0.000000 0.000000
                            }
                        }
                    }
                }
            }
        }
    }
    JOINT LeftUpLeg
    {
        OFFSET 8.837609 0.000000 0.000000
        CHANNELS 3 Zrotation Xrotation Yrotation
        JOINT LeftLeg
        {
            OFFSET -0.000000 -41.345005 0.000000
            CHANNELS 3 Zrotation Xrotation Yrotation
            JOINT LeftFoot
            {
                OFFSET -0.000000 -35.500874 0.000000
                CHANNELS 3 Zrotation Xrotation Yrotation
                JOINT LeftToeBase
                {
                    OFFSET -0.000000 -5.744446 13.256415
                    CHANNELS 3 Zrotation Xrotation Yrotation
                    End Site
                    {
                        OFFSET -0.000000 0.000000 3.535044
                    }
                }
            }
        }
    }
    JOINT RightUpLeg
    {
        OFFSET -8.837609 0.000000 0.000000
        CHANNELS 3 Zrotation Xrotation Yrotation
        JOINT RightLeg
        {
            OFFSET -0.000000 -41.345005 0.000000
            CHANNELS 3 Zrotation Xrotation Yrotation
            JOINT RightFoot
            {
                OFFSET -0.000000 -35.500874 0.000000
                CHANNELS 3 Zrotation Xrotation Yrotation
                JOINT RightToeBase
                {
                    OFFSET -0.000000 -5.744446 13.256415
                    CHANNELS 3 Zrotation Xrotation Yrotation
                    End Site
                    {
                        OFFSET -0.000000 0.000000 3.535044
                    }
                }
            }
        }
    }
}
MOTION
Frames:    13
Frame Time:    0.010000
-2.112716    82.534813    57.952904    4.994988    -0.557941    2.389872    -7.931437    -8.320350    -3.313466    4.097628    12.469952    -3.183467    -3.202083    23.718378    -1.867482    2.288063    -18.616205    -1.486678    8.277119    4.656446    11.732740    -69.801033    63.771088    2.025660    -1.317127    -6.768958    -63.747242    -9.729009    -4.655086    -33.589195    -6.575999    1.759419    12.245388    69.697342    57.788017    5.215542    -10.605304    -13.593065    44.144878    21.342968    -4.117826    27.494724    -0.456519    -0.909495    -1.305846    0.453091    5.036424    -2.178650    0.686309    2.071541    -3.643140    -1.386560    -3.859995    1.988053    -9.993735    -0.667652    -2.936310    6.493802    -1.327232    2.701944    2.343539    0.514486    -8.993326    -1.271493    2.135466    2.229187    
-2.018284    82.619843    58.279282    5.144958    -0.295617    2.328316    -8.604621    -8.813578    -3.563123    4.812149    12.567457    -3.428905    -3.313589    23.714067    -1.930906    2.337414    -18.556187    -1.546937    8.409581    4.864186    11.754098    -69.651131    65.088211    2.706592    -0.172412    -6.002160    -64.215523    -6.939979    -3.916565    -35.166775    -6.618581    1.950148    12.144764    69.012184    57.321938    5.777439    -10.382323    -13.978003    44.384510    21.700417    -4.424801    27.807096    -0.606013    -0.652880    -1.247130    0.308543    4.419180    -1.941580    0.705014    2.268147    -3.815980    -1.538963    -3.625992    2.203228    -10.301312    -0.163207    -2.443904    6.708507    -2.449553    2.666347    2.341385    0.780453    -9.285486    -1.352026    2.102343    2.371165    
-1.921109    82.741974    58.627953    5.409853    -0.140362    2.164319    -9.318235    -9.256734    -3.711322    5.367688    12.711950    -3.553585    -3.237102    23.704540    -2.024401    2.251696    -18.478153    -1.665479    8.637493    5.171247    11.768932    -69.133720    66.172745    2.987227    0.655645    -5.301215    -64.754158    -5.136472    -3.179309    -36.854538    -6.651995    2.120813    11.934147    68.615578    56.782242    6.200435    -10.327958    -14.212806    44.505672    21.677982    -4.573261    28.339298    -0.860776    -0.226466    -1.018306    0.169276    3.742113    -1.747097    0.626146    2.427000    -4.029090    -1.477023    -3.599056    2.114199    -10.725521    0.457352    -1.883595    6.908241    -3.627321    2.445865    2.437029    1.186848    -9.287029    -1.321481    2.013744    2.319729    
-1.823014    82.832756    58.953445    5.501569    0.040262    2.061820    -9.765598    -9.698287    -3.816758    5.803250    12.798815    -3.637678    -3.017699    23.769777    -2.177371    2.023467    -18.424950    -1.879814    8.945689    5.289754    11.568373    -69.124374    67.253716    3.820031    2.028431    -4.295246    -65.394882    -3.227357    -1.911968    -37.157951    -6.722419    2.386081    11.634456    68.278236    56.156723    6.622943    -10.492111    -14.239401    44.710484    21.174419    -4.572088    28.694122    -0.912229    0.140027    -0.776111    -0.025562    3.094214    -1.635473    0.534513    2.524467    -4.281415    -1.445833    -3.506573    2.068332    -10.994415    1.043399    -1.448963    7.120943    -4.806299    2.119953    2.509998    1.578122    -9.172003    -1.317547    1.911609    2.315275    
-1.772606    82.904808    59.226036    5.620902    0.395463    1.788405    -10.364637    -10.248143    -3.812747    6.369001    12.787775    -3.595180    -2.794898    23.914148    -2.365434    1.855000    -18.440983    -2.113183    9.304525    5.421277    11.287475    -68.879318    68.182877    4.413678    2.575139    -3.650912    -66.205025    -2.278274    -1.187165    -38.123905    -6.855784    2.696360    11.235456    68.048782    55.397869    7.012293    -10.650457    -14.116385    45.062988    20.257450    -4.553867    28.851299    -0.955217    0.298983    -0.208794    -0.222012    2.471314    -1.709868    0.414653    2.612707    -4.540241    -1.383451    -3.468037    1.978614    -11.234156    1.316852    -1.155728    7.280519    -5.876665    1.804853    2.563329    1.955595    -8.840008    -1.336464    1.884297    2.349178    
-1.717048    82.958740    59.501141    5.702411    0.787326    1.435889    -10.800627    -10.841551    -3.753938    6.745036    12.741591    -3.479900    -2.463775    24.006454    -2.561525    1.635134    -18.362516    -2.361563    9.756954    5.505370    11.098745    -68.540604    69.409401    4.927579    2.788016    -3.291840    -67.161797    -1.744798    -0.821284    -39.199322    -6.933566    3.069944    10.683069    67.609116    54.831131    7.588204    -10.713688    -14.229383    45.514935    19.459091    -4.750967    29.148869    -0.951241    0.465152    0.293443    -0.451460    1.789367    -1.811297    0.335488    2.670226    -4.646236    -1.347882    -3.327857    1.926025    -11.448105    1.503281    -0.749426    7.442301    -6.877645    1.660829    2.626367    2.270514    -8.725889    -1.346116    1.872804    2.366423    
-1.646218    82.983955    59.769855    5.744514    1.148215    1.017231    -10.992527    -11.413082    -3.613112    6.874322    12.656811    -3.274526    -2.116632    24.205515    -2.785804    1.436819    -18.376431    -2.631835    10.222711    5.580400    10.823709    -68.048737    70.910286    5.344165    2.662617    -3.239243    -68.257515    -1.252259    -0.979098    -40.112381    -6.885167    3.404417    10.271271    67.474113    53.943058    7.668810    -10.414801    -14.565990    46.371372    18.831717    -5.263194    29.350754    -0.930158    0.699291    0.760282    -0.677037    1.048675    -1.913119    0.293354    2.730373    -4.651556    -1.303878    -3.194068    1.861567    -11.614642    1.659617    -0.481761    7.585061    -7.819943    1.406300    2.513859    2.604162    -8.292226    -1.268379    1.941140    2.228208    
-1.584421    82.980644    60.014023    5.675797    1.529025    0.538715    -10.997083    -11.925550    -3.432229    6.978956    12.475752    -3.043797    -1.895800    24.396097    -2.990515    1.321156    -18.398397    -2.865536    10.545679    5.529793    10.601722    -67.615768    71.817474    5.948998    2.691922    -2.543488    -69.395966    -0.500016    -0.495860    -40.542530    -6.865090    3.636082    9.836606    67.340164    53.008453    7.696907    -10.092473    -14.846700    47.303024    18.828508    -5.565896    29.511246    -0.794217    0.897536    1.165562    -0.902249    0.326529    -2.047957    0.254568    2.638345    -4.748678    -1.367287    -3.021866    1.949954    -11.700813    1.686172    0.096967    7.777254    -8.602515    1.307174    2.450539    2.827862    -8.317361    -1.303372    1.980865    2.288727    
-1.518476    82.947372    60.263000    5.625690    1.903420    0.010463    -10.946049    -12.384289    -3.245555    6.974648    12.152018    -2.797635    -1.658387    24.724115    -3.129443    1.185413    -18.466143    -3.036470    10.887373    5.667991    10.375786    -67.077003    73.004845    6.512139    2.866185    -2.175380    -70.707901    0.391435    -0.287593    -40.726334    -6.729684    3.750516    9.566381    67.420158    52.348595    7.323204    -9.524461    -15.559548    48.442123    18.709038    -6.452775    29.604647    -0.685398    1.151281    1.508715    -1.136787    -0.469021    -2.110526    0.339182    2.685226    -4.573555    -1.344519    -2.929139    1.916363    -11.708841    1.737671    0.040050    7.860323    -9.408872    1.375532    2.477470    3.137072    -7.864720    -1.302864    1.990136    2.287615    
-1.441695    82.884491    60.446465    5.651976    2.313494    -0.624591    -11.017148    -12.717740    -3.069177    7.135737    11.724488    -2.571189    -1.609812    24.873785    -3.220212    1.099217    -18.354429    -3.156044    11.159495    5.949068    10.150163    -66.688698    74.186546    7.113596    3.321687    -1.990323    -71.845398    1.176466    -0.022578    -40.923038    -6.578831    3.903840    9.401655    67.050270    51.745300    7.186567    -9.203691    -16.277916    49.476681    19.160685    -7.028553    30.096807    -0.703113    1.311639    1.931256    -1.290205    -1.218809    -2.167936    0.369453    2.731956    -4.356255    -1.318597    -2.886244    1.878910    -11.842410    1.580874    0.109258    8.025805    -10.002148    1.612970    2.488114    3.360973    -7.620707    -1.331371    2.032639    2.336630    
-1.346373    82.811119    60.657948    5.631419    2.591507    -1.193254    -10.982835    -12.940595    -2.921260    7.299964    11.321021    -2.396334    -1.656428    25.069479    -3.291355    1.000537    -18.333176    -3.266674    11.295912    5.933173    10.037684    -67.281311    75.211945    8.729303    4.122129    -1.432675    -72.911293    2.460093    0.711175    -40.295452    -6.477059    4.042960    9.271946    66.469795    51.564053    7.141130    -8.955084    -17.122040    50.564865    18.929476    -7.898013    30.542765    -0.709949    1.650254    2.111452    -1.403893    -2.043902    -1.946353    0.441795    2.777621    -4.209052    -1.267638    -2.821620    1.805566    -11.896480    1.578283    -0.026177    8.146304    -10.568149    1.703932    2.496208    3.574564    -7.088535    -1.388937    2.088613    2.436231    
-1.248613    82.730850    60.872734    5.649056    2.801853    -1.790466    -11.024585    -13.143652    -2.812670    7.570005    11.072271    -2.273408    -1.881588    25.047516    -3.290443    0.999384    -18.182188    -3.286150    11.419185    5.824279    10.030440    -68.647766    76.318871    11.004717    4.208669    -1.377515    -74.015549    3.061815    0.652112    -40.972584    -6.457600    4.014259    9.209723    65.908813    51.211617    7.136908    -8.780810    -17.627771    51.569565    18.374058    -8.490107    30.977819    -0.771380    2.088399    2.198760    -1.498679    -2.940654    -1.575922    0.504146    2.898403    -4.118731    -1.276774    -2.763014    1.817905    -12.011259    1.583999    -0.057996    8.300955    -11.021047    1.903999    2.464645    3.714900    -6.723249    -1.384047    2.127545    2.426680    
-1.117106    82.654297    61.097275    5.761400    2.913160    -2.219280    -11.128083    -13.206239    -2.804024    7.770442    10.787586    -2.246510    -2.044965    25.074266    -3.278891    0.880814    -18.101257    -3.324286    11.523407    5.918711    10.191365    -69.333122    77.353363    12.513024    4.689868    -1.246694    -75.065178    3.502714    1.032533    -41.460953    -6.411607    4.036648    9.252599    65.222069    50.789818    7.194776    -8.674215    -18.041903    52.595207    17.474014    -9.075402    31.305006    -0.978537    2.621541    1.868000    -1.520545    -3.872582    -0.886501    0.581017    3.032519    -4.092848    -1.280094    -2.667312    1.821534    -12.254691    1.665007    -0.684179    8.578381    -11.248239    2.595889    2.420035    3.775665    -6.410108    -1.408941    2.168806    2.469266    
